<mxfile host="app.diagrams.net" modified="2024-05-28T21:37:54.762Z" agent="Mozilla/5.0 (Windows NT 10.0; Win64; x64) AppleWebKit/537.36 (KHTML, like Gecko) Chrome/125.0.0.0 Safari/537.36" etag="j0ddmq9456gwJGH7bad1" version="24.4.9" type="github">
  <diagram name="Page-1" id="8Iod8fkoqyeIapXZaN_Y">
    <mxGraphModel dx="1647" dy="909" grid="0" gridSize="10" guides="1" tooltips="1" connect="1" arrows="1" fold="1" page="0" pageScale="1" pageWidth="827" pageHeight="1169" math="0" shadow="0">
      <root>
        <mxCell id="0" />
        <mxCell id="1" parent="0" />
      </root>
    </mxGraphModel>
  </diagram>
</mxfile>
